# xmcd CD database file
#
# Track frame offsets:
#	150
#	10757
#	29172
#	50438
#	62320
#	83788
#	102212
#	120179
#	138278
#	154197
#	170067
#	186348
#	202121
#	223926
#
# Disc length: 3222 seconds
#
# Revision: 0
# Processed by: cddbd v1.5.2PL0 Copyright (c) Steve Scherf et al.
# Submitted via: CDex 1.51
#
DISCID=c20c940e
DTITLE=Mike Whellans - The One Man Blues Band - Almost 42nd Street...
DYEAR=2003
DGENRE=Blues
TTITLE0=Jammin' the Blues
TTITLE1=Strange Love
TTITLE2=Ragtime Joe
TTITLE3=No Baby No
TTITLE4=Am I Wrong
TTITLE5=When The Curfew Blows
TTITLE6=Meet Me At The Bottom
TTITLE7=Jumping In The Neighbourhood
TTITLE8=Hip Shakin'
TTITLE9=Warm It Up To Me
TTITLE10=Ready Steady Freddie
TTITLE11=Baby What Do You Want Me To Do?
TTITLE12=I'm In The Mood
TTITLE13=Smile On Your Face
EXTD=YEAR: 2003
EXTT0=
EXTT1=
EXTT2=
EXTT3=
EXTT4=
EXTT5=
EXTT6=
EXTT7=
EXTT8=
EXTT9=
EXTT10=
EXTT11=
EXTT12=
EXTT13=
PLAYORDER=
